<svg xmlns="http://www.w3.org/2000/svg" viewBox="0 0 48.21 41.79"><defs><style>.cls-1{fill:#4e4e4e;}</style></defs><title>ic_apr</title><g id="Layer_2" data-name="Layer 2"><g id="Layer_1-2" data-name="Layer 1"><rect class="cls-1" y="3.09" width="48.21" height="2.64" rx="1.26"/><rect class="cls-1" x="11.87" y="35.73" width="12.96" height="2" rx="1" transform="translate(57.3 49.73) rotate(135)"/><rect class="cls-1" x="23.61" y="35.74" width="12.96" height="1.98" rx="0.99" transform="translate(34.79 -10.52) rotate(45)"/><rect class="cls-1" x="19.36" y="35.68" width="9.72" height="2.49" rx="1.25" transform="translate(61.15 12.7) rotate(90)"/><rect class="cls-1" x="21.24" y="0.9" width="5.73" height="3.93" rx="1.96" transform="translate(26.97 -21.24) rotate(90)"/><path class="cls-1" d="M3.14,3.93V33.45h42V3.93ZM33.68,19.71l-8.15,3.4-4.82-1.66-8.07,5.36-1.1-1.67,8.88-5.9,5,1.73,6.8-2.83,3.91-7.21,1.76,1Z"/></g></g></svg>