<?xml version="1.0" encoding="utf-8"?>
<!-- Generator: Adobe Illustrator 24.2.1, SVG Export Plug-In . SVG Version: 6.00 Build 0)  -->
<svg version="1.1" id="Layer_1" xmlns="http://www.w3.org/2000/svg" xmlns:xlink="http://www.w3.org/1999/xlink" x="0px" y="0px"
	 viewBox="0 0 24 20" style="enable-background:new 0 0 24 20;" xml:space="preserve">
<style type="text/css">
	.st0{fill:#FFFFFF;}
</style>
<path class="st0" d="M7,14h13v1H7V14z M20,11H7v1h13V11z M20,5h-5v1h5V5z M20,8h-5v1h5V8z M3,0v17.2c0,0.8-1,0.8-1,0V2H0v16
	c0,1.1,0.9,2,2,2h20c1.1,0,2-0.9,2-2V0H3z M22,17H5V2h17V17z M13,5H7v4h6V5z"/>
</svg>
