<?xml version="1.0" encoding="utf-8"?>
<!-- Generator: Adobe Illustrator 24.2.1, SVG Export Plug-In . SVG Version: 6.00 Build 0)  -->
<svg version="1.1" id="Layer_1" xmlns="http://www.w3.org/2000/svg" xmlns:xlink="http://www.w3.org/1999/xlink" x="0px" y="0px"
	 viewBox="0 0 24 24" style="enable-background:new 0 0 24 24;" xml:space="preserve">
<style type="text/css">
	.st0{fill:#FFFFFF;}
</style>
<path class="st0" d="M1.9,6L1.4,4h21.3l-0.5,2C22.1,6,1.9,6,1.9,6z M3.4,2L3,0h18l-0.4,2C20.6,2,3.4,2,3.4,2z M24,18H0l2,6h20L24,18
	z M3.1,16l-0.8-6h19.4l-0.8,6h2L24,8H0l1.1,8H3.1z M5.9,12c0-0.6,0.4-1,1-1c0.6,0,1.2,0.4,1.2,1c0,0.6-0.4,1-1,1
	C6.5,13,5.9,12.6,5.9,12z M13.5,11.8l-1.8,2.7l-1.8-1.3L7,16h10C17,16,13.5,11.8,13.5,11.8z"/>
</svg>
