<svg xmlns="http://www.w3.org/2000/svg" viewBox="0 0 50.5 62.36"><defs><style>.cls-1{fill:#4e4e4e;}.cls-2{fill:none;stroke:#4e4e4e;stroke-miterlimit:10;stroke-width:3px;}</style></defs><title>ic-trofeu</title><g id="Layer_2" data-name="Layer 2"><g id="Layer_1-2" data-name="Layer 1"><rect class="cls-1" x="4.66" y="51.12" width="41.18" height="11.24"/><rect class="cls-1" x="20.21" y="31.09" width="10.09" height="20.03"/><path class="cls-1" d="M7.82,0H42.68a0,0,0,0,1,0,0V24.6A17.43,17.43,0,0,1,25.25,42h0A17.43,17.43,0,0,1,7.82,24.6V0a0,0,0,0,1,0,0Z"/><path class="cls-2" d="M1.5,9.33H7.82a0,0,0,0,1,0,0V26.22a0,0,0,0,1,0,0h0A6.32,6.32,0,0,1,1.5,19.9V9.33a0,0,0,0,1,0,0Z"/><path class="cls-2" d="M42.68,9.33H49a0,0,0,0,1,0,0V19.9a6.32,6.32,0,0,1-6.32,6.32h0a0,0,0,0,1,0,0V9.33A0,0,0,0,1,42.68,9.33Z"/></g></g></svg>