<svg xmlns="http://www.w3.org/2000/svg" viewBox="0 0 103.19 42.5"><defs><style>.cls-1{fill:#000200;}</style></defs><title>pat_scorpion</title><g id="Layer_2" data-name="Layer 2"><g id="Layer_7" data-name="Layer 7"><path class="cls-1" d="M84.13,17.16c-.69.29-1-.19-1.39-.55s-.93-1-1.43-1.5a3.84,3.84,0,0,0-5.56-.22,2.51,2.51,0,0,1-2,.74,2.14,2.14,0,0,0-1,.2,3.63,3.63,0,0,1-3.86-.56A13.6,13.6,0,0,0,66.66,14a2.31,2.31,0,0,1-1.35-2.49,10,10,0,0,0,3.87-4.32,2,2,0,0,1,1.93-1.21,9.28,9.28,0,0,0,4.52-1.3A7.34,7.34,0,0,1,78.39,4a14.43,14.43,0,0,1,5.49.75,31.21,31.21,0,0,0,9,1.79,11.38,11.38,0,0,1,2.62.6,23.43,23.43,0,0,0,2.6.63,1.35,1.35,0,0,1,1.29,1,6.62,6.62,0,0,0,1.9,3.08,1.34,1.34,0,0,1,.21,1.62,3.07,3.07,0,0,0,.41,3.14,3.61,3.61,0,0,1,.43,2.11,7.93,7.93,0,0,0,.57,3.72,2,2,0,0,1-1,2.83,6.91,6.91,0,0,1-1.4.73,2.6,2.6,0,0,1-3.18-1c-.51-.68-1-1.37-1.49-2.07a1.91,1.91,0,0,1,.24-2.64,12.73,12.73,0,0,0,1.36.31,2,2,0,0,0,2-1.05,1.73,1.73,0,0,0-.63-2.12,9.86,9.86,0,0,0-1.81-1,2.27,2.27,0,0,1-1.57-2.17,1.24,1.24,0,0,0-.16-.77,3.41,3.41,0,0,1-.5-2.87c0-.14-.09-.3-.19-.59-.5.08-1,.14-1.52.24a23.29,23.29,0,0,1-7.45.16,4.78,4.78,0,0,1-2.94-1.07,1.25,1.25,0,0,0-1-.24,4.24,4.24,0,0,0-2.53,2.05A1.3,1.3,0,0,0,79.84,13c.88.47,1.84.82,2.69,1.36C83.53,15,84.39,15.78,84.13,17.16Z"/><path class="cls-1" d="M47.52,8.65c-2.39.45-4.56.65-6.58-.18a6.92,6.92,0,0,1-4.3-4.58,7.46,7.46,0,0,0-1.27.76c-.45.44-.82,1-1.25,1.43a3.49,3.49,0,0,1-3.44,1.13,18.17,18.17,0,0,0-3.95-.37,14.26,14.26,0,0,0-3.23.7,3.32,3.32,0,0,1-2.21.18c.19-1.41,2-1.19,2.34-2.58C22.1,4.05,19.71,4.85,18.32,3c.4-.05.67-.1.94-.12a19.18,19.18,0,0,0,2.52-.22C25.15,1.91,28.5,1.1,31.87.42A25.94,25.94,0,0,1,35.8,0a4.11,4.11,0,0,1,3.13,1.32,39.42,39.42,0,0,0,7.72,6.32C46.93,7.81,47.1,8.16,47.52,8.65Z"/><path class="cls-1" d="M5.8,25.4c.25-1.1.25-1.1-1-3.92a2.4,2.4,0,0,1,1.75,1C7.74,23.7,9,24.91,10.17,26.22a10.82,10.82,0,0,0,5.5,3.31,3.8,3.8,0,0,1,2.79,1.89,1.77,1.77,0,0,0,1.62.84l5.54.52c.42,0,.83.13,1.3.21.21,1.33-.54,2.37-.87,3.66a13.28,13.28,0,0,1-5-.74,5.05,5.05,0,0,0-4.42.21,3.47,3.47,0,0,1-4.15-1c-1.31-1.47-2.51-3-3.89-4.43C7,29,5.25,27.44,3.52,25.89c-.91-.82-1.91-1.52-2.86-2.28A2.26,2.26,0,0,1,0,22.74C2.19,23,3.52,25.13,5.8,25.4Z"/><path class="cls-1" d="M68.47,41.82c-.63.78-1.28.85-1.82.43-1.15-.88-2.2-1.85-2-3.53a8.26,8.26,0,0,0-.11-2.22c-.21-1.09-.65-1.35-2.14-1.29-.25,1.1-.54,2.27-.78,3.44s-.15,2.35-1.19,3.12c-1.9-.24-2.47-.92-2.08-2.57,1.1-4.64,2.23-9.28,3.35-13.92a7.35,7.35,0,0,1,.35-.83,11.78,11.78,0,0,1,5,1.75,2.13,2.13,0,0,1,.9,1.61,11,11,0,0,1-.33,5,4,4,0,0,0-.1,2.17,7.37,7.37,0,0,1,0,2.2C67.37,38.83,67.3,40.42,68.47,41.82Zm-3-12.75c-1.34-.15-1.6-.06-1.82.94a22.5,22.5,0,0,0-.35,3c0,.26.19.54.29.81C65.47,33.17,66.15,31.44,65.42,29.07Z"/><path class="cls-1" d="M57.79,24.65c.26.26.55.51.79.79a3.29,3.29,0,0,1,.48,4.24,12.7,12.7,0,0,0-1.59,4.45A5.67,5.67,0,0,1,55.26,38a2,2,0,0,1-2.75.07,13,13,0,0,0-1.21-.77c-2.22-1.18-3.06-3-2.09-5.24A77.54,77.54,0,0,1,53,24.57c1.08-1.92,2.78-2,4.31-.52l.57.57Zm-4.4,9.45a10.54,10.54,0,0,0,1.28-1.45c.61-1.1,1.18-2.24,1.68-3.39a3.77,3.77,0,0,0,.35-1.67,1.1,1.1,0,0,0-1.81-.9A3.89,3.89,0,0,0,53.73,28a9.07,9.07,0,0,0-1,4.58C52.71,32.92,53,33.32,53.39,34.1Z"/><path class="cls-1" d="M75.58,37.45,73.64,38c-.83,1.19.08,2.68-.53,4.06a4.48,4.48,0,0,1-2.82-.34c-.35-1.32-.36-13.81,0-15.38a6.76,6.76,0,0,1,4.07,1,3.38,3.38,0,0,1,1.11,1.28A10.6,10.6,0,0,1,75.58,37.45ZM73.79,34c1.53-.83,1.69-2.06.53-3.2C73.22,31.47,73,32.45,73.79,34Z"/><path class="cls-1" d="M39,17.59a10.53,10.53,0,0,1,1.92.58c1.1.58,2.15,1.26,3.44,2l-1.12,3.34-2.56-.66c0,.77.07,1.27.08,1.77a20.85,20.85,0,0,1,0,2.85c-.17,1.43-.92,2-2.3,1.67a25.34,25.34,0,0,1-3.59-1.23,1.14,1.14,0,0,1-.75-1.58l1.66.17c.75-.92.26-1.62-.27-2.3-1-1.31-.78-2.28.77-2.88a3.25,3.25,0,0,1,.61-.17A1.54,1.54,0,0,0,38.4,19.5,8,8,0,0,1,39,17.59Z"/><path class="cls-1" d="M49.64,25.6,49,25.26c-1.12-.57-1.56-.47-2.23.56-.09.13-.14.28-.22.42-1.08,2-1,2.36,1,3.52a2.48,2.48,0,0,1,.36.35c-.16,1.39-.33,2.9-.53,4.61a14.32,14.32,0,0,1-5.18-2.79,2.31,2.31,0,0,1-.45-2.67A15.67,15.67,0,0,1,43.28,26a50.16,50.16,0,0,1,3.28-4.29c.79-1,1.13-1,2.17-.38C50.68,22.41,50.91,23.41,49.64,25.6Z"/><path class="cls-1" d="M40.39,32.8a35.17,35.17,0,0,1-5.85,4.09,2.29,2.29,0,0,1-1.07.27,14,14,0,0,1-4.58-.53,5.21,5.21,0,0,1,.16-3.29c.17-.06.33-.17.46-.14,2,.48,3.74-.26,5.4-1.3.63-.39,1.29-.74,2-1.07a1.48,1.48,0,0,1,2,.41C39.29,31.75,39.8,32.2,40.39,32.8Z"/><path class="cls-1" d="M94.16,23c1,1.47,2.1,2.92,3.1,4.4.15.22,0,.61.07.84-1,1.29-2.14-.17-3.33.3-.16.68-.32,1.44-.51,2.2s-.72,1.26-1.78,1.08l-2.38-5.06c.75-1.3,1.93-.95,2.94-.92C93.44,25.23,92.57,23.52,94.16,23Z"/><path class="cls-1" d="M88.75,34.3a3.07,3.07,0,0,1-4.48-.6,8.63,8.63,0,0,1-1.42-5.3A2,2,0,0,1,86,26.75a7.73,7.73,0,0,1,3.5,4.75A2.8,2.8,0,0,1,88.75,34.3Zm-3.64-5.91a3.12,3.12,0,0,0-.38,3.42c.3.78.76,1.38,1.73,1.14a3.19,3.19,0,0,0,.36-3.29C86.52,29,86.23,28.27,85.11,28.39Z"/><path class="cls-1" d="M83.14,37.7l-2.78,1.23c-.64-1.11-2.21-7.36-2.75-10.88l2.74-1.18C80.8,30.61,80.63,34.4,83.14,37.7Z"/><path class="cls-1" d="M45.91,19.26C45,16.39,44,13.56,43,10.52c1.82.08,3.55.38,5.48.64-.28,2.3-.52,4.54-.85,6.77A1.37,1.37,0,0,1,45.91,19.26Z"/></g></g></svg>