<svg xmlns="http://www.w3.org/2000/svg" viewBox="0 0 121.93 41.45"><defs><style>.cls-1{fill:#000200;}.cls-2{fill:#cf3e36;}</style></defs><title>pat_drotek</title><g id="Layer_2" data-name="Layer 2"><g id="Layer_7" data-name="Layer 7"><polygon class="cls-1" points="67.62 41.34 70.96 41.34 70.96 40.37 68.6 40.37 68.6 38.79 70.96 38.79 70.96 37.81 68.6 37.81 68.6 36.27 70.96 36.27 70.96 35.29 67.62 35.29 67.62 41.34"/><polygon class="cls-1" points="73.31 35.29 72.33 35.29 72.33 41.34 75.29 41.34 75.29 40.37 73.31 40.37 73.31 35.29"/><polygon class="cls-1" points="76.33 41.34 79.67 41.34 79.67 40.37 77.31 40.37 77.31 38.79 79.67 38.79 79.67 37.81 77.31 37.81 77.31 36.27 79.67 36.27 79.67 35.29 76.33 35.29 76.33 41.34"/><path class="cls-1" d="M83.82,36.15a2,2,0,0,1,1,.23,2.32,2.32,0,0,1,.79.73l.05.06h1.12l-.16-.31a3.11,3.11,0,0,0-1.14-1.24,3,3,0,0,0-1.61-.44,3.2,3.2,0,0,0-1.17.22,3,3,0,0,0-1,.66,3.2,3.2,0,0,0-.7,1,3,3,0,0,0-.24,1.2,3.11,3.11,0,0,0,.89,2.26,3,3,0,0,0,2.22.91A3,3,0,0,0,85.42,41a3,3,0,0,0,1.11-1.2l.17-.31h-1l-.1,0,0,.07a2.13,2.13,0,0,1-.75.66,2.11,2.11,0,0,1-1,.22,1.91,1.91,0,0,1-1.45-.63,2.22,2.22,0,0,1-.61-1.57,2.13,2.13,0,0,1,.61-1.51,2,2,0,0,1,1.45-.63"/><polygon class="cls-1" points="87.25 36.27 88.37 36.27 88.37 41.34 89.35 41.34 89.35 36.27 90.47 36.27 90.47 35.29 87.25 35.29 87.25 36.27"/><path class="cls-1" d="M94.85,38.55a1.92,1.92,0,0,0,.44-1.26,2,2,0,0,0-.22-.93,1.8,1.8,0,0,0-.6-.71,1.84,1.84,0,0,0-.62-.28,3.89,3.89,0,0,0-.85-.08H91.28v6.05h1V36.27h.6a3.08,3.08,0,0,1,.78.06.83.83,0,0,1,.31.16,1.07,1.07,0,0,1,.25.35,1.34,1.34,0,0,1,.08.46A.89.89,0,0,1,94,38a1,1,0,0,1-.72.25h-.92l1.88,3.06,0,.08h1.16l-1.39-2.26a1.56,1.56,0,0,0,.78-.53"/><path class="cls-1" d="M101.45,36.06a3.18,3.18,0,0,0-1-.66,3.23,3.23,0,0,0-2.33,0,3,3,0,0,0-1,.66,3.1,3.1,0,0,0-.7,1,3.06,3.06,0,0,0-.24,1.2,3.09,3.09,0,0,0,.88,2.25,2.93,2.93,0,0,0,2.19.92,3.12,3.12,0,0,0,1.26-.26,3.27,3.27,0,0,0,1-.76,3,3,0,0,0,.59-1,3.38,3.38,0,0,0,.2-1.17,3.26,3.26,0,0,0-.23-1.21,3.08,3.08,0,0,0-.69-1m-2.17.08a2,2,0,0,1,1.48.63,2.08,2.08,0,0,1,.62,1.5,2.25,2.25,0,0,1-.6,1.58,1.93,1.93,0,0,1-1.47.64,2,2,0,0,1-1.49-.63,2.21,2.21,0,0,1-.61-1.57,2.17,2.17,0,0,1,.21-.92,2.26,2.26,0,0,1,.58-.75,1.85,1.85,0,0,1,.6-.36,1.91,1.91,0,0,1,.68-.12"/><polygon class="cls-1" points="107.17 39.69 104.48 35.37 104.44 35.29 103.44 35.29 103.44 41.34 104.41 41.34 104.36 36.93 107.05 41.26 107.1 41.34 108.09 41.34 108.09 35.29 107.12 35.29 107.17 39.69"/><rect class="cls-1" x="109.46" y="35.29" width="0.98" height="6.04"/><path class="cls-1" d="M114.58,36.15a2,2,0,0,1,1,.23,2.32,2.32,0,0,1,.79.73l0,.06h1.13l-.16-.31a3.11,3.11,0,0,0-1.14-1.24,3.07,3.07,0,0,0-1.62-.44,3.19,3.19,0,0,0-1.16.22,3.26,3.26,0,0,0-1.67,1.68,3,3,0,0,0-.25,1.2,3.11,3.11,0,0,0,.89,2.26,3.16,3.16,0,0,0,3.79.49,3.07,3.07,0,0,0,1.11-1.2l.17-.31h-1l-.1,0,0,.07a2.2,2.2,0,0,1-.74.66,2.12,2.12,0,0,1-1,.22,1.94,1.94,0,0,1-1.45-.63,2.22,2.22,0,0,1-.6-1.57,2.12,2.12,0,0,1,.6-1.51,2,2,0,0,1,1.45-.63"/><path class="cls-1" d="M121.51,38.43a1.81,1.81,0,0,0-.88-.62l-.45-.15a3.21,3.21,0,0,1-.62-.26.64.64,0,0,1-.19-.22.79.79,0,0,1-.05-.29.72.72,0,0,1,.2-.54.71.71,0,0,1,.53-.21.59.59,0,0,1,.46.18,1,1,0,0,1,.22.59l0,.19h.94v-.23a1.9,1.9,0,0,0-.47-1.23,1.54,1.54,0,0,0-1.16-.45,1.66,1.66,0,0,0-1.24.49,1.77,1.77,0,0,0-.48,1.25,1.48,1.48,0,0,0,.33,1,2.14,2.14,0,0,0,1,.6l.14,0c.69.22,1,.54,1,1a1,1,0,0,1-.22.68.82.82,0,0,1-.63.24.69.69,0,0,1-.57-.24,1,1,0,0,1-.24-.69V39.3h-1v.22a2.06,2.06,0,0,0,.49,1.39,1.66,1.66,0,0,0,1.28.54,1.72,1.72,0,0,0,1.34-.57,2.14,2.14,0,0,0,.5-1.46,1.62,1.62,0,0,0-.29-1Z"/><path class="cls-1" d="M23.76,18.84V12c0-3.67,0-7.34,0-11a1,1,0,0,0-.2-.7.84.84,0,0,0-.67-.18c-1.36,0-2.68,0-3.92,0a.89.89,0,0,0-.71.18,1,1,0,0,0-.2.73c0,4,0,8.15,0,12.12v4.95a22.22,22.22,0,0,1-.14,2.54,5.68,5.68,0,0,1-2.17,3.75,5.74,5.74,0,0,1-4.18,1.21,6.68,6.68,0,0,1-5.81-5.8,6.63,6.63,0,0,1,2-5.92,6.27,6.27,0,0,1,5.65-1.69,9.23,9.23,0,0,1,1.26.41l.62.23.21.08V11.38c0-1.14,0-2.21,0-3.31,0-.58-.34-.74-.7-.85a11,11,0,0,0-6-.07A11.82,11.82,0,0,0,0,17.89a12,12,0,0,0,6.89,12,11,11,0,0,0,4.45,1,9.56,9.56,0,0,0,6.73-2.69l.06.21a7.15,7.15,0,0,1,.2,1c.07.57.34.8.94.78,1.35,0,2.47,0,3.51,0a1,1,0,0,0,.74-.18,1,1,0,0,0,.22-.77c0-3.45,0-7,0-10.36"/><path class="cls-1" d="M87.88,30.88h.38A11.59,11.59,0,0,0,99,23l0-.2h-5.4a.86.86,0,0,0-.79.41,5.22,5.22,0,0,1-4.27,2.45,6.09,6.09,0,0,1-6.31-4.21H97.22c2.28,0,2.38-.09,2.51-2.3.25-4.35-1.23-7.78-4.41-10.2A12.24,12.24,0,0,0,83.37,7.49a11.72,11.72,0,0,0-7.13,9.6,12.48,12.48,0,0,0,3,10.05,11.44,11.44,0,0,0,8.64,3.74m.21-19h0a5.67,5.67,0,0,1,5.72,4.53c.06.22,0,.27,0,.28s0,0-.25,0H82.33a.48.48,0,0,1-.26,0s0,0,0-.27a6.1,6.1,0,0,1,6-4.53"/><path class="cls-1" d="M75.61,8.07a.66.66,0,0,0-.15-.49A.69.69,0,0,0,75,7.44h-.73a9.65,9.65,0,0,0-1.2,0c-.29,0-.46,0-.55-.08a.77.77,0,0,1-.12-.56c0-1.17,0-2.35,0-3.5,0-.84,0-1.68,0-2.51a.87.87,0,0,0-.18-.64.77.77,0,0,0-.6-.16c-1.4,0-2.78,0-4.08,0a.94.94,0,0,0-.7.19.91.91,0,0,0-.19.68c0,1.28,0,2.58,0,3.84v1a3.69,3.69,0,0,0,0,.57,1.89,1.89,0,0,1-.1,1.11c-.19.22-.58.18-1,.13a3.58,3.58,0,0,0-.73,0h0a.75.75,0,0,0-.6.12.73.73,0,0,0-.17.61c0,.5,0,1,0,1.49v.83c0,.17,0,.37,0,.56a1.91,1.91,0,0,0,.17,1.33c.32.37.88.3,1.42.23l.54,0c.23,0,.36,0,.42.09s.09.19.09.41c0,2,0,4,0,5.93v4.28c0,2,0,4,0,6.05a.88.88,0,0,0,.19.66.84.84,0,0,0,.64.17c1.5,0,2.72,0,3.84,0h.15a1,1,0,0,0,.7-.2,1.12,1.12,0,0,0,.24-.85c0-3,0-6.09,0-9.06q0-3.45,0-6.88c0-.3,0-.46.11-.53a.71.71,0,0,1,.46-.06,11.14,11.14,0,0,0,1.29,0H75a.65.65,0,0,0,.51-.14.57.57,0,0,0,.14-.45c0-1.22,0-2.5,0-3.92"/><path class="cls-1" d="M38.3,7.57V7.36c0-.32,0-.64-.57-.65a5,5,0,0,0-4.06,1.65c-.18.2-.35.41-.52.61L33,9.15A.81.81,0,0,1,33,9a5.12,5.12,0,0,1,0-.68.79.79,0,0,0-.13-.68,1,1,0,0,0-.73-.2c-1.24,0-2.49,0-3.68,0a.73.73,0,0,0-.55.15.79.79,0,0,0-.16.55c0,7.86,0,14.83,0,21.3a.77.77,0,0,0,.17.55.79.79,0,0,0,.61.15h.12c1.27,0,2.59,0,3.88,0h.12a.88.88,0,0,0,.62-.18,1,1,0,0,0,.21-.75c0-3.53,0-7.37,0-12.09,0-2.95,1.29-4.43,4.14-4.8.38-.05.71-.15.7-.73,0-1.35,0-2.71,0-4"/><path class="cls-1" d="M106.88,19.69c2.5,3.33,5,6.68,7.42,10a1.16,1.16,0,0,0,1,.51h0c1,0,2,0,2.94,0h3.62l-2.32-2.92c-2.26-2.84-4.4-5.52-6.6-8.23-.29-.36-.26-.53,0-.87,1.32-1.76,2.64-3.56,3.92-5.3l1-1.33,1.89-2.59,1.07-1.45h-6.3a.67.67,0,0,0-.59.42.24.24,0,0,1-.06.09l-1.79,2.7q-2.64,4-5.3,8a.81.81,0,0,0,.06,1.08"/><path class="cls-1" d="M108.38,25a1.64,1.64,0,0,0-.38-1l-1.29-1.72c-.61-.83-1.24-1.68-1.88-2.5a.79.79,0,0,1-.07-1.12c.76-1.11,1.49-2.26,2.19-3.37.36-.56.71-1.12,1.07-1.67a1.82,1.82,0,0,0,.36-1.05c0-3.46,0-7.56,0-11.77a.81.81,0,0,0-.17-.6.86.86,0,0,0-.64-.16c-1.17,0-2.54,0-3.92,0a1,1,0,0,0-.75.19,1,1,0,0,0-.21.75c0,3.58,0,7.22,0,10.74v6.71c0,3.61,0,7.22,0,10.83a1,1,0,0,0,.19.77.85.85,0,0,0,.58.17h.11c1.38-.07,2.81,0,4.07,0a.61.61,0,0,0,.74-.74c0-1.33,0-2.72,0-4.4"/><path class="cls-2" d="M50.91,6.33a12.34,12.34,0,0,0-3,24.31l.5.13v-6l-.23-.11a6.72,6.72,0,0,1-3.66-6.06,6.28,6.28,0,1,1,12.53,0,6.76,6.76,0,0,1-3.61,6l-.22.11v6.07l.49-.11A12.34,12.34,0,0,0,50.91,6.33"/></g></g></svg>