<?xml version="1.0" encoding="utf-8"?>
<!-- Generator: Adobe Illustrator 25.0.0, SVG Export Plug-In . SVG Version: 6.00 Build 0)  -->
<svg version="1.1" id="Capa_1" xmlns="http://www.w3.org/2000/svg" xmlns:xlink="http://www.w3.org/1999/xlink" x="0px" y="0px"
	 viewBox="0 0 402 126" style="enable-background:new 0 0 402 126;" xml:space="preserve">
<style type="text/css">
	.st0{fill:none;}
	.st1{clip-path:url(#SVGID_2_);}
	.st2{fill:#E20613;}
	.st3{fill:#C6C6C5;}
</style>
<rect x="-882.1" y="-432.8" class="st0" width="731.6" height="690.1"/>
<g>
	<g>
		<defs>
			<path id="SVGID_1_" d="M95.4,124.6H12c-6.1,0-11-4.9-11-11V30.2c0-6.1,4.9-11,11-11h83.4c6.1,0,11,4.9,11,11v83.4
				C106.4,119.7,101.4,124.6,95.4,124.6z"/>
		</defs>
		<clipPath id="SVGID_2_">
			<use xlink:href="#SVGID_1_"  style="overflow:visible;"/>
		</clipPath>
		<g class="st1">
			
				<rect x="77.6" y="19.2" transform="matrix(-1 -1.224647e-16 1.224647e-16 -1 183.9922 67.1739)" class="st2" width="28.7" height="28.7"/>
			
				<rect x="39.3" y="19.2" transform="matrix(-1 -1.224647e-16 1.224647e-16 -1 107.3639 86.331)" class="st2" width="28.7" height="47.9"/>
			
				<rect x="1" y="19.2" transform="matrix(-1 -1.224647e-16 1.224647e-16 -1 30.7356 105.4881)" class="st2" width="28.7" height="67"/>
			<rect x="1" y="95.8" class="st3" width="28.7" height="28.7"/>
			<rect x="39.3" y="76.7" class="st3" width="28.7" height="47.9"/>
			<rect x="77.6" y="57.5" class="st3" width="28.7" height="67"/>
		</g>
	</g>
	<g>
		<path class="st2" d="M146.5,81V26.6h17.6v49.6l9.5-2.6v-47h7.3c7.9,0,10.8,2.7,10.8,10.7v31.3l9.5-2.6V37.3
			c0.1-7.9-1.1-11.7-4.7-14.8c-3.8-3-6.3-3.5-17.3-3.4H137v64.5L146.5,81z"/>
		<path class="st2" d="M249.4,46h-28.6c-0.1,4.5,1,7.5,3.3,10.1c2.3,2.4,4.5,2.9,11.6,3.1h13.7v7.5h-16.3c-8.2,0-12-1.1-15.7-4.3
			c-4.4-4-6.8-10.6-6.8-18.6c0-10,3.5-17.3,10.4-21.4c3.7-2.4,8.1-3.3,14.6-3.3h13.7v7.5h-12.3c-10.2-0.2-14.6,3-16.3,11.9h28.6V46z
			"/>
		<path class="st2" d="M299.4,26.6h-15.2c-10.4,0-14.4,4.6-14.4,16.4c0,6.4,1.3,10.7,4,13.3c2.1,2.2,5,2.9,10.4,2.9h15.2v7.5h-15.2
			c-9.8,0-14.5-1.4-18.2-5.5c-3.8-4.2-6-10.6-6-17.5c0-7.4,2.2-13.9,6.3-18.3c4.3-4.7,9.1-6.4,17.9-6.4h15.2V26.6z"/>
		<path class="st3" d="M236,75.9c-8.5,0-14.5,2.3-18.7,7c-3.9,4.3-6.2,11-6.2,18.2c0,15.1,8.7,23.5,24.4,23.5
			c15.3,0,24.3-8.9,24.3-24.1C259.8,84.7,251.2,75.9,236,75.9z M235.2,116.7c-9.4,0-14.3-5.6-14.3-16.3c0-10.8,5.2-16.7,14.5-16.7
			s14.6,6.1,14.6,16.9C250,111.4,245,116.7,235.2,116.7z"/>
		<path class="st3" d="M282.2,76.4H270v47.7h9.5V84.3h3.7c6.7,0,8.5,2,8.6,8.9v4.7h8.9v-4.7C301,80.5,296.3,76.2,282.2,76.4z"/>
		<path class="st3" d="M334,95.2h-4.8l23.4-18.8h-12.1l-22.5,18.8V75.1l-9.5,2.6v46.4h9.5v-22h8.9c11.3-0.2,13.7,1.9,13.6,11.1v11
			h9.5v-12.9C350.3,99.7,345.9,95.3,334,95.2z"/>
		<path class="st3" d="M396.2,97.8c-2.2-1.3-2.6-1.4-13.2-1.5h-6.5c-7.8,0-9.4-1-9.4-5.8c0-2.4,0.6-4.2,1.7-5.4
			c1.2-1.1,2.2-1.3,8.7-1.3h21.4v-7.5h-24c-5.5,0-8.8,0.6-11.4,2c-3.9,2.1-6.3,6.7-6.3,12.1c0,4.8,1.9,9.3,5,11.9
			c2.7,2.2,5,2.5,15.2,2.5h3.8c4.5,0,6,0.1,7,0.3c2.1,0.6,2.9,2.3,2.9,5.4c0,2.9-0.8,4.7-2.4,5.3c-1.1,0.5-3.3,0.7-8.1,0.7h-22.9
			v7.5H383c7.5,0,9.6-0.2,11.9-1.4c3.9-2,6.2-6.7,6.2-12.9C401,104.1,399.2,99.7,396.2,97.8z"/>
		<path class="st2" d="M328.9,19h-11.1V1.4h-9.5v65.3h0.2l9.3-2.6V26.6h11.1c9.4-0.1,12.2,2.7,12.1,12.4v27.7h9.5V39.8
			C350.7,24.1,345.4,18.9,328.9,19z"/>
		<path class="st3" d="M191.4,79.1v37.6H174V83.9l-9.3,2.5v30.3H157c-8.8-0.1-10.5-2.2-10.3-12.8V91.4l-9.9,2.7v8.7v4.2
			c0,6.2,1.3,10,4.2,12.9c3.3,3.3,6.7,4.3,15.6,4.3h44.1V76.7h-0.3L191.4,79.1z"/>
	</g>
</g>
</svg>
