<svg xmlns="http://www.w3.org/2000/svg" viewBox="0 0 128.66 18.29"><defs><style>.cls-1{fill:#221e1f;}.cls-2{fill:#ce3835;}</style></defs><title>pat_grabcad</title><g id="Layer_2" data-name="Layer 2"><g id="Layer_7" data-name="Layer 7"><path class="cls-1" d="M8.58,8.68h7.67v7.47a14.69,14.69,0,0,1-7.87,2.14C3.65,18.29,0,15.74,0,11.75V6.37C0,2.42,3.9,0,8.47,0a12.81,12.81,0,0,1,7.18,2l-.94,1.7A11.3,11.3,0,0,0,8.58,2C5.19,2,2.27,3.69,2.27,6.54v5c0,3,2.77,4.72,6.11,4.72a11,11,0,0,0,5.6-1.4V10.53H8.58Z"/><path class="cls-1" d="M21.62,8.75h6.86c1.88-.09,3.75-1,3.75-2.9V5.21c0-1.76-1.54-2.92-3.92-2.92H21.59V8.75Zm8.64,1.37L34.91,18H32.4l-4.35-7.42H21.62V18H19.34V.28h9.12c3.68,0,6.09,1.78,6.09,4.8V5.7c0,2.47-1.83,3.93-4.29,4.42"/><path class="cls-1" d="M49.56,10.91,45.85,2.55l-3.73,8.36ZM47.07.06,54.9,18H52.37L50.09,12.8H41.56L39.24,18H36.73l7.92-18Z"/><path class="cls-1" d="M69.54,12.72c0-1.91-1.88-2.9-4.33-2.9h-6v6.35h6.26c2.42,0,4.09-.82,4.09-2.68ZM59.16,8H65.1c2.19,0,3.8-.94,3.8-2.64V4.91c0-2-1.35-2.74-4.1-2.74H59.19V8ZM68,8.81c2.31.63,3.84,2,3.84,4.06v.79c0,2.85-2.41,4.4-6.12,4.4H56.89V.3H65C68.83.3,71.15,2,71.15,4.82V5.3A3.89,3.89,0,0,1,68,8.81"/><path class="cls-2" d="M79,6.78v4.69c0,2.45,1.9,3.45,4.52,3.45a10.09,10.09,0,0,0,5.13-1.17l1.3,2.91a11.2,11.2,0,0,1-6.66,1.63c-4.77,0-8.28-2.23-8.28-6.58V6.56C75,2.49,78.78,0,83.22,0c3,0,4.94.47,6.87,1.78L88.65,4.63a9.94,9.94,0,0,0-5.19-1.24C81,3.39,79,4.59,79,6.78"/><path class="cls-2" d="M103.38,11.13,100.7,4.07,98,11.13Zm-.49-11,7.16,17.93h-4.42l-1.48-3.91H97.21l-1.53,3.91H91.27L98.47.13Z"/><path class="cls-2" d="M124.72,7.72c0-2.9-1.8-4.18-4.1-4.18H116.2V14.77h4.14c2.36,0,4.4-1.17,4.4-4.18V7.72ZM120.62.28c4.7,0,8,2.14,8,6.8v4.18c0,4.67-3.69,6.8-8.34,6.8h-8V.3h8.34Z"/></g></g></svg>