<svg xmlns="http://www.w3.org/2000/svg" viewBox="0 0 250.98 75.86"><defs><style>.cls-1{fill:#005386;fill-rule:evenodd;}</style></defs><title>Asset 1</title><g id="Layer_2" data-name="Layer 2"><g id="svg9123"><g id="layer1"><g id="g9179"><path id="Fill-1" class="cls-1" d="M35.44,0C42-.27,49.7,1.12,51.14,5.73c2.36,7.56-9.6,18.58-20,24-2.56,1.33-4.11,1.69-4.75,1.6a.74.74,0,0,1-.51-1.12c.37-.8,2-2.42,4.3-4.18C41.89,16.85,45.71,10.13,43.49,7.4c-1.42-1.74-7.37-3-13.55-3-1.68,0-6.09.39-6.54-1.16C23,2,29,.35,35.44,0"/><path id="Fill-3" class="cls-1" d="M21.61,34.69c5.61-.33,12.41.65,16.23,3.58a6.86,6.86,0,0,1,2.47,7.19c-2.21,8.7-10.44,19.23-28.74,27.32C5.75,75.35,1.17,76.33.21,75.64s2-6.48,2.88-8.39A157.42,157.42,0,0,1,13.21,49.57c1.31-2,3.34-5.54,5.17-5.25,1.64.25-.28,4-1.55,6.35-2.12,4-8,15-6,15.71,4.27,1.46,24.28-13.76,21.33-22.24-1.37-3.93-10.06-4.31-15.53-4.31-2.49,0-7.92.59-8.22-1.32C8,36.76,16.62,35,21.61,34.69"/><path id="Fill-5" class="cls-1" d="M64.89,25.37c3.36.61,6.1,1.08,6.73,2.5.71,1.61-3,1.7-4.8,1.74C58,29.78,52.64,30,52.37,33c-.35,3.87,3.78,7.77,7.86,13.23,3.72,5,8,9.91,6.73,14.5-1.52,5.71-8.53,6.92-15.2,6.92a81.77,81.77,0,0,1-15-1.52c-3.16-.63-2.69-2.19-1.85-2.7s6.33-.57,10.07-.79c3.08-.19,12-.18,13.43-2.47,1.71-2.81-2.48-7.61-6.33-12.64C47.29,41.21,42,34.74,44.81,30c3.61-6.12,14.17-5.7,20.08-4.63"/><path id="Fill-6" class="cls-1" d="M202.78,42.53c7.1,0,9.84-2.43,11-8.05l1.68-8.75c.11-.58-.24-.76-.68-.76h-3.44l-.94,5-.54,2.68L209.38,35c-.63,3.17-2.68,4.6-6.17,4.6-3.82,0-4.85-1.39-4.25-4.6,0,0,.15-.8.2-1l.79-4,1-5h-3.44a.9.9,0,0,0-1,.76l-1.69,8.75c-1.15,6.17,1.92,8.05,8,8.05ZM82.09,52c-.52,2.42,1.38,3.59,5.22,6,4.2,2.61,5.16,2.81,4.77,4.18-.31,1.11-1.41,1.15-3.3,1.15H81.29a1.32,1.32,0,0,0-1.49,1.11L79.5,66h9.44c4.32,0,7-.26,8-2.9a3.57,3.57,0,0,0-.69-3.93,10.2,10.2,0,0,0-2.68-1.94c-5.39-3-6.8-3.4-6.46-4.88.2-.83.77-.86,2.8-.86h6.32a1.32,1.32,0,0,0,1.5-1.11l.31-1.6H90c-4.54,0-7.26,0-8,3.28Zm41.6,0c-.51,2.42,1.38,3.59,5.22,6,4.2,2.61,5.16,2.81,4.77,4.18-.31,1.11-1.41,1.15-3.3,1.15H122.9a1.31,1.31,0,0,0-1.49,1.11l-.3,1.53h9.43c4.32,0,7-.26,8-2.9a3.57,3.57,0,0,0-.69-3.93,10.37,10.37,0,0,0-2.68-1.94c-5.39-3-6.8-3.4-6.46-4.88.19-.83.76-.86,2.79-.86h6.33a1.31,1.31,0,0,0,1.49-1.11l.32-1.6h-8c-4.53,0-7.25,0-7.95,3.28Zm105.44,0c-.51,2.42,1.38,3.59,5.22,6,4.2,2.61,5.16,2.81,4.77,4.18-.31,1.11-1.41,1.15-3.3,1.15h-7.48a1.31,1.31,0,0,0-1.49,1.11l-.3,1.53H236c4.32,0,7-.26,8-2.9a3.59,3.59,0,0,0-.69-3.93,10.37,10.37,0,0,0-2.68-1.94c-5.39-3-6.8-3.4-6.46-4.88.19-.83.77-.86,2.79-.86h6.33a1.31,1.31,0,0,0,1.49-1.11l.32-1.6h-8c-4.53,0-7.25,0-8,3.28ZM166.87,39.24a3.57,3.57,0,0,0-.69-3.93,10.2,10.2,0,0,0-2.68-1.94c-5.39-3-6.8-3.4-6.46-4.88.19-.83.77-.86,2.8-.86h6.32a1.32,1.32,0,0,0,1.5-1.11l.31-1.6h-8c-4.53,0-7.25,0-8,3.28-.51,2.42,1.39,3.59,5.22,6,4.2,2.61,5.16,2.81,4.78,4.18-.31,1.11-1.41,1.15-3.3,1.15h-7.48a1.32,1.32,0,0,0-1.5,1.11l-.3,1.54h9.44c4.31,0,7-.27,8-2.91Zm-20.1,0a3.57,3.57,0,0,0-.69-3.93,10.2,10.2,0,0,0-2.68-1.94c-5.39-3-6.8-3.4-6.46-4.88.19-.83.77-.86,2.8-.86h6.32a1.32,1.32,0,0,0,1.5-1.11l.31-1.6h-8c-4.53,0-7.25,0-7.94,3.28-.52,2.42,1.38,3.59,5.21,6,4.2,2.61,5.17,2.81,4.78,4.18-.31,1.11-1.41,1.15-3.31,1.15h-7.47a1.32,1.32,0,0,0-1.5,1.11l-.3,1.54h9.44c4.32,0,7-.27,8-2.91ZM234.52,25c-.85,0-1.33.29-1.46.93l-.34,1.74h6.77l-2.82,14.51h3a1.35,1.35,0,0,0,1.52-1.22l2.59-13.29h5.64c.8,0,1.08-.36,1.22-1.06L251,25ZM87.13,29.74a.8.8,0,0,0-.8.59L84,42.15H94.2c5.7,0,9.65-2.12,10.89-8.7.92-4.9-1.21-8.48-7-8.48H85.77s0,.12,0,.22c-.28,1.16-.13,2.43,1.81,2.43h9c4.3,0,4.92,2.15,4.06,5.94S98.22,39.2,95,39.49H88.86l1.89-9.75Zm145,10.8c.15-.75-.12-1-.81-1h-9.22l2.72-13.95a.5.5,0,0,0-.53-.58h-3.68l-3.34,17.18h14.54Zm-27.44,8.25h-3.9l-7.53,6.69-4.93-6.69h-3.89c-.64,0-1,.4-1.12,1.1L180.17,66h3.31a1.1,1.1,0,0,0,1.2-1L187,53l3.8,5.41a1,1,0,0,0,.9.53h1.71a1.63,1.63,0,0,0,1.12-.53l5.9-5.41L198.1,65c-.12.65.13,1,.83,1h3.3l3.13-16.07C205.49,49.19,205.31,48.79,204.67,48.79Zm-41.17,1.1L160.38,66h15.87l.34-1.71c.14-.71,0-.94-.83-.94H165.21l.9-4.61h9.32a.5.5,0,0,0,.51-.41l.35-1.83a.32.32,0,0,0-.35-.4h-9.32l.9-4.61h10.17c.48,0,1,0,1.09-.64l.39-2H164.84a1.22,1.22,0,0,0-1.34,1.1Zm47.14,0L207.51,66h15.88l.33-1.71c.14-.71,0-.94-.83-.94H212.34l.9-4.61h9.32a.5.5,0,0,0,.51-.41l.35-1.83a.31.31,0,0,0-.34-.4h-9.33l.9-4.61h10.17c.48,0,1,0,1.08-.64l.4-2H212a1.21,1.21,0,0,0-1.33,1.1Zm-95.21-.52-1.52,7.82c-2.66.82-9.56,2.31-8.48-3.22l1-5.18h-3.63a.8.8,0,0,0-.81.58l-.91,4.72c-1.74,9,6.75,7.74,12.25,6L112.21,66h3a1.35,1.35,0,0,0,1.52-1.22l3.1-15.95h-3.68a.79.79,0,0,0-.75.58Zm45.35,1,.32-1.61H144.64c-.86,0-1.34.29-1.46.93l-.34,1.73h6.76L146.78,66h3a1.35,1.35,0,0,0,1.52-1.22l2.58-13.29h5.65C160.36,51.45,160.65,51.1,160.78,50.4ZM113.44,32.19c.65-3.35,2.6-4.56,6.08-4.56,3.68,0,4.65,1.38,4,4.56,0,0-.15.79-.21,1s-.23,1.28-1.18,1.28H113l.45-2.31Zm-5.18,10h3.25l.94-5h10.12l-.94,5h3.25a.87.87,0,0,0,.94-.76l1.69-8.68c1.24-6.58-2.47-8-7.48-8-6,0-9.43,1.5-10.74,8l-1.68,8.68C107.49,42,107.83,42.15,108.26,42.15Zm68.31-10c.65-3.35,2.6-4.56,6.08-4.56,3.68,0,4.64,1.38,4,4.56,0,0-.15.79-.21,1s-.23,1.28-1.19,1.28h-9.18l.45-2.31Zm-5.18,10h3.25l.94-5H185.7l-.94,5H188a.87.87,0,0,0,.94-.76l1.69-8.68c1.24-6.58-2.47-8-7.48-8-6,0-9.43,1.5-10.74,8l-1.69,8.68c-.11.58.23.76.66.76Z"/></g></g></g></g></svg>