<svg xmlns="http://www.w3.org/2000/svg" viewBox="0 0 211.43 114.1"><defs><style>.cls-1,.cls-2{fill:#211915;}.cls-2{fill-rule:evenodd;}</style></defs><title>pat_tekbond</title><g id="Layer_2" data-name="Layer 2"><g id="Layer_1-2" data-name="Layer 1"><rect class="cls-1" x="0.02" y="111.92" width="211.41" height="2.17"/><path class="cls-2" d="M103.82,90.14h2.67l6.15,10.14V90.14h2.62v15.53h-2.47l-6.34-10.73v10.73h-2.63Zm-13.35,4h0l-1.86,5h3.76Zm-6.92,11.49,5.89-15.54h2l5.93,15.54H94.67l-1.44-3.93h-5.5l-1.44,3.93Zm15-15.54h2.62v15.54H98.6Zm-21.92,11.1H74a4.92,4.92,0,0,0,4.9,4.76,4.8,4.8,0,0,0,4.88-5c0-3.38-2.8-4.24-4-4.66-1.45-.53-2.62-.94-2.62-2.29a1.68,1.68,0,0,1,1.71-1.57,1.81,1.81,0,0,1,1.91,1.74h2.64A4.54,4.54,0,0,0,79,89.83a4.44,4.44,0,0,0-4.43,4.43c0,3.28,2.54,3.89,3.64,4.35,1.79.74,3,1.16,3,2.75a2.14,2.14,0,0,1-2.21,2,2.26,2.26,0,0,1-2.28-2.08m120.17-11.1h2.66l6.15,10.15V90.14h2.62v15.54h-2.47l-6.34-10.74v10.74h-2.62ZM183.49,94.2h0l-1.85,5h3.75Zm-6.92,11.48,5.89-15.53h2l5.94,15.53h-2.75l-1.44-3.93h-5.5l-1.44,3.93Zm-18.91-2.38a5.39,5.39,0,1,1,5.19-5.38,5.29,5.29,0,0,1-5.19,5.38m0-13.46a8.08,8.08,0,1,0,7.77,8.08,7.93,7.93,0,0,0-7.77-8.08m34,.31h2.63v15.53h-2.63Zm-22.13,2.54h1.74c1.49,0,2,.75,2,1.67C173.26,96,171.61,96,171,96h-1.51Zm-2.61,13h4.43a6.36,6.36,0,0,0,3.65-.92,4.51,4.51,0,0,0,1.76-3.7,3.72,3.72,0,0,0-2.43-3.86,3.18,3.18,0,0,0,1.58-3,4.25,4.25,0,0,0-1.2-2.9c-1.22-1.19-2.79-1.19-4.36-1.19h-3.43Zm2.61-7.1h2A2.18,2.18,0,0,1,174,101c0,1.57-1.41,2-2.49,2h-2Zm-30-.81h9.23v.33a7.57,7.57,0,1,1-7.57-8.27A7.45,7.45,0,0,1,148,94.7h-3.13a4.42,4.42,0,0,0-3.79-2.18c-3.19,0-4.85,3-4.85,5.41s1.62,5.38,5,5.38a4.57,4.57,0,0,0,4.2-3h-5.94Zm-13.17,0h5.14v2.52h-5.14Zm-5.81-5.08h0v13h2.62v-13h3.93V90.15H116.63v2.54Z"/><path class="cls-2" d="M20.81,69.1v8.52h5.66s3.55,0,3.55-4.31-3.55-4.21-3.55-4.21Zm0-12.9v6.49H27.3S30,62.68,30,59.4a2.85,2.85,0,0,0-2.72-3.2Zm21.58,9.7c4.1,1,8.09,3.18,8.38,7.6v1.68S51.79,84,33,84H0V77.73a2.94,2.94,0,0,0,3.13-3.17V59.1A3.18,3.18,0,0,0,0,56V49.75H33.19s17.58-.8,17.58,9c-.18,1.56-1.34,5.31-8.38,7.1M75.81,49.75h12.9s17-.8,17,9V75.18S106.7,84,88.55,84H71.63c-18.16,0-17.17-8.81-17.17-8.81V58.8c0-9.85,17-9,17-9Zm117,9.62c0-3.2-2.45-3.2-2.45-3.2h-6.84V77.58h6s3.27,0,3.27-3.2Zm-30.37-9.62H194.5s16.86-.8,16.86,9V75.18s1,8.81-17,8.81H162.41V77.78A3,3,0,0,0,165,74.62V59.21a3,3,0,0,0-2.62-3.16ZM111,74.64c0,2.48-1.54,3-2.22,3.15V84h21.9V77.79c-.68-.12-2.31-.65-2.31-3.16V69.48L139,84h17.24V59.2A2.89,2.89,0,0,1,158.63,56V49.75H136.8V56c.68.11,2.18.65,2.18,3.15v5L128.33,49.75H108.75v6.47c.71.13,2.21.72,2.21,3.14ZM80.13,55.73c5.37,0,5.39,4.11,5.39,4.11v14S85.5,78,80,78s-5.39-4.11-5.39-4.11v-14s0-4.11,5.53-4.11"/><path class="cls-1" d="M0,0V43.57H28V21.82H12.3V9.32h56v12.5H52.87V43.57l24.72,0V9.34l46.67,0v9.35H101.05v4.68h18.67v9.3H101.05v4.64h23.2v6.28h9.47V9.32h24.86v14l14-14h24.91l-17.17,17.1L202.1,43.57h9.33V0ZM199,31.06a6.19,6.19,0,1,1,6.18-6.19A6.19,6.19,0,0,1,199,31.06"/><path class="cls-1" d="M200.15,24.92v0c1-.1,1.83-.6,1.83-1.52,0-1.32-1.57-1.61-2.78-1.61h-3.31V28h2V25.61h.75c1,0,1,.31,1.13,1.05A9.82,9.82,0,0,0,200,28h2.15a6.61,6.61,0,0,1-.33-1.5c-.13-1-.37-1.53-1.64-1.56m-1.5-.52h-.78V23h.78c.63,0,1.25.08,1.25.71s-.62.72-1.25.72"/><polygon class="cls-2" points="158.58 32.66 158.58 43.57 172.6 43.57 158.58 32.66"/></g></g></svg>