<?xml version="1.0" encoding="utf-8"?>
<!-- Generator: Adobe Illustrator 23.1.0, SVG Export Plug-In . SVG Version: 6.00 Build 0)  -->
<svg version="1.1" id="Layer_1" xmlns="http://www.w3.org/2000/svg" xmlns:xlink="http://www.w3.org/1999/xlink" x="0px" y="0px"
	 viewBox="0 0 746 204.8" style="enable-background:new 0 0 746 204.8;" xml:space="preserve">
<style type="text/css">
	.st0{fill:#E5E5E5;}
	.st1{fill:#F94646;}
	.st2{fill:#B20000;}
</style>
<polygon points="102.9,0 0,102.9 102.5,204.8 205.1,102.2 "/>
<g>
	<path d="M253.1,162.1h-9.9l0.1-13.8h-27.4c-3.6,0-6.1-0.7-7.7-2.2c-0.9-0.9-1.3-1.8-1.3-2.9c0-0.8,0.2-1.6,0.8-2.3l19.6-27.3H238
		l-19.7,27.8h25.1v-27.8h9.9L253.1,162.1L253.1,162.1z"/>
	<path d="M316.6,151c0,3.4-1.2,6.1-3.8,8.1c-2.6,2-6.2,3-10.9,3h-34.8v-48.6h34.6c10,0,15,3.6,15,10.9L316.6,151L316.6,151z
		 M306.8,148.7v-22.4c0-3.9-2.7-5.8-8.2-5.8h-21.5v34.6h21.5C304,155.1,306.8,152.9,306.8,148.7z"/>
	<path d="M400.6,120.6H375c-4.1,0-6.8,0.7-7.8,2.2c-0.6,0.9-0.9,3-0.9,6.1c0,1.7,0.7,3,2.3,3.9c1.3,0.7,3.4,1.1,6.4,1.1h10.6
		c4.5,0,8.1,0.9,10.9,2.7c2.7,1.7,4.1,4.2,4.1,7.4v7.7c0,3.3-1.4,5.9-4.1,7.7c-2.7,1.7-6.5,2.7-11.4,2.7h-28.5V155h25.6
		c4.2,0,6.9-0.8,8-2.4c0.5-0.8,0.7-3.1,0.7-6.5c0-3.3-2.7-5-8.3-5H372c-4.4,0-8-0.8-10.8-2.4c-3.1-1.7-4.6-4.2-4.6-7.3v-7.5
		c0-3.4,1.7-6.1,5.1-8.1c2.3-1.4,5.7-2.2,10.2-2.2H401v7.1L400.6,120.6L400.6,120.6z"/>
	<path d="M461.9,113.6l-23,28.8v19.8H429v-19.8l-23-28.8h11.4l16.2,21.1l16.8-21.1H461.9z"/>
	<path d="M509.1,120.6h-25.6c-4.1,0-6.8,0.7-7.8,2.2c-0.6,0.9-0.9,3-0.9,6.1c0,1.7,0.7,3,2.3,3.9c1.3,0.7,3.4,1.1,6.4,1.1h10.6
		c4.5,0,8.1,0.9,10.9,2.7c2.7,1.7,4.1,4.2,4.1,7.4v7.7c0,3.3-1.4,5.9-4.1,7.7c-2.7,1.7-6.5,2.7-11.4,2.7H465V155h25.6
		c4.2,0,6.9-0.8,8-2.4c0.5-0.8,0.7-3.1,0.7-6.5c0-3.3-2.7-5-8.3-5h-10.6c-4.4,0-8-0.8-10.8-2.4c-3.1-1.7-4.6-4.2-4.6-7.3v-7.5
		c0-3.4,1.7-6.1,5.1-8.1c2.3-1.4,5.7-2.2,10.2-2.2h29.1v7.1L509.1,120.6L509.1,120.6z"/>
	<path d="M560.1,120.5H543v41.6h-9.9v-41.6h-17v-7.1h44V120.5z"/>
	<path d="M608.7,141.4h-32.6v8.2c0,3.6,2.9,5.5,8.7,5.5h25.8v7.1h-28.5c-4.9,0-8.8-0.8-11.5-2.5c-3-1.8-4.5-4.5-4.5-7.8v-27.3
		c0-3.4,1.3-6.1,4-8s6.4-2.9,11.1-2.9h29.4v7.1h-25.9c-5.7,0-8.6,1.7-8.6,5.3v8.3h32.6V141.4L608.7,141.4z"/>
	<path d="M692.3,162.4h-9.5v-38.2l-17.6,34.1c-1.7,3.3-4.1,5-7.2,5c-1.8,0-3.3-0.5-4.5-1.5c-0.7-0.7-1.5-1.7-2.2-3.2l-18-34.3v38.2
		h-9.5V120c0-1.8,0.7-3.4,2.2-4.6s3.6-1.8,6.3-1.8c4.1,0,6.8,1.5,8.3,4.6l17.3,34.5l17.7-34.5c1.6-3.1,4.3-4.6,8.2-4.6
		c2.7,0,4.9,0.7,6.3,1.9c1.5,1.2,2.2,2.8,2.2,4.8V162.4z"/>
	<path d="M745.9,120.6h-25.6c-4.1,0-6.8,0.7-7.8,2.2c-0.6,0.9-0.9,3-0.9,6.1c0,1.7,0.7,3,2.3,3.9c1.3,0.7,3.4,1.1,6.4,1.1h10.6
		c4.5,0,8.1,0.9,10.9,2.7c2.7,1.7,4.1,4.2,4.1,7.4v7.7c0,3.3-1.4,5.9-4.1,7.7c-2.7,1.7-6.5,2.7-11.4,2.7h-28.6V155h25.6
		c4.2,0,6.9-0.8,8-2.4c0.5-0.8,0.7-3.1,0.7-6.5c0-3.3-2.7-5-8.3-5h-10.6c-4.4,0-8-0.8-10.8-2.4c-3.1-1.7-4.6-4.2-4.6-7.3v-7.5
		c0-3.4,1.7-6.1,5.1-8.1c2.3-1.4,5.7-2.2,10.2-2.2H746L745.9,120.6L745.9,120.6z"/>
</g>
<g>
	<path d="M230.4,180.9H224l-2.9,16.2h-3.7l2.9-16.2h-6.4l0.5-2.7H231L230.4,180.9z"/>
	<path d="M249.3,192.4c-0.2,0.8-0.3,1.5-0.6,2c-0.3,0.6-0.9,1.2-1.7,1.7c-0.7,0.5-1.6,0.8-2.3,1c-0.5,0.1-1.4,0.2-2.6,0.2h-5.9
		c-1.2,0-2-0.1-2.5-0.2c-0.7-0.2-1.5-0.5-2-0.9c-0.7-0.6-1-1.1-1.2-1.7c-0.1-0.4,0-1.1,0.1-2l2.5-14.2h3.7l-2.4,13.7
		c-0.2,1,0,1.7,0.4,2c0.5,0.3,1.3,0.5,2.7,0.5h3.9c1.3,0,2.3-0.2,2.9-0.5s1-1,1.2-1.9l2.4-13.8h3.7L249.3,192.4z"/>
	<path d="M271,197.2h-4.7l-8-7.3c-0.2-0.2-0.3-0.7-0.2-1.2c0.2-1.1,1.1-1.6,2.6-1.6h5.6c1.8,0,2.9-0.7,3.1-1.9l0.4-2.2
		c0.2-1.3-0.7-2-2.7-2h-7.8l-2.8,16.2h-3.8l3.3-18.9h12.7c3.8,0,5.6,1.3,5.1,4.1l-0.6,3.3c-0.2,1.2-0.9,2.2-2,2.8
		c-1.2,0.7-2.5,1.1-4.1,1.1h-4.3L271,197.2z"/>
	<path d="M293.7,194.9c-0.2,0.7-0.5,1.3-1.1,1.7c-0.7,0.5-1.5,0.8-2.4,0.8s-1.6-0.2-2-0.6c-0.2-0.2-0.5-0.7-0.8-1.6l-6.4-13.3
		l-2.7,15.2h-3.6l2.9-16.2c0.3-1.8,1.5-2.7,3.6-2.7c0.9,0,1.6,0.2,2,0.6c0.2,0.2,0.5,0.7,0.9,1.6l6.4,13.3l2.7-15.2h3.6L293.7,194.9
		z"/>
	<path d="M301.1,197.2h-3.7l3.3-19h3.7L301.1,197.2z"/>
	<path d="M324.3,194.9c-0.2,0.7-0.5,1.3-1.1,1.7c-0.7,0.5-1.5,0.8-2.4,0.8s-1.6-0.2-2-0.6c-0.2-0.2-0.5-0.7-0.8-1.6l-6.4-13.3
		l-2.7,15.2h-3.6l2.9-16.2c0.3-1.8,1.5-2.7,3.6-2.7c0.9,0,1.6,0.2,2,0.6c0.2,0.2,0.5,0.7,0.9,1.6l6.4,13.3l2.7-15.2h3.6L324.3,194.9
		z"/>
	<path d="M347.3,192.6c-0.2,1.5-0.9,2.6-2,3.3c-1.2,0.8-2.7,1.2-4.4,1.2h-6.5c-2.1,0-3.6-0.3-4.5-1.1c-0.7-0.5-1-1.1-1.2-1.7
		c-0.1-0.4,0-1.1,0.2-2.1l1.7-9.6c0.2-0.9,0.4-1.6,0.7-2c0.4-0.6,1-1.1,1.9-1.6c1.1-0.6,2.7-0.9,4.5-0.9h10.9l-0.5,2.7h-10
		c-1.2,0-2.1,0.2-2.6,0.4c-0.6,0.3-1,0.9-1.2,1.7l-1.6,9c-0.2,0.8,0,1.5,0.6,1.8c0.4,0.2,1.2,0.4,2.2,0.4h4.9c1.9,0,3-0.7,3.2-2.2
		l1-5.6h3.7L347.3,192.6z"/>
	<path d="M379.8,180.9h-6.5l-2.9,16.2h-3.7l2.9-16.2h-6.4l0.5-2.7h16.6L379.8,180.9z"/>
	<path d="M396.6,189.1h-12.3l-0.6,3.2c-0.2,1.4,0.7,2.2,2.9,2.2h9.8l-0.5,2.7h-10.8c-1.8,0-3.2-0.3-4.1-1c-1-0.7-1.4-1.7-1.2-3.1
		l1.9-10.7c0.2-1.3,0.9-2.3,2.1-3.1c1.2-0.7,2.6-1.2,4.4-1.2h11l-0.5,2.7H389c-2.2,0-3.4,0.7-3.6,2.1l-0.6,3.2H397L396.6,189.1z"/>
	<path d="M420.6,180.9h-9.9c-1.1,0-1.9,0.2-2.4,0.4c-0.7,0.4-1,0.9-1.2,1.7l-1.6,9c-0.2,0.9,0,1.5,0.4,1.9c0.4,0.3,1.2,0.5,2.5,0.5
		h9.7l-0.5,2.7h-11.1c-1.8,0-3.1-0.4-4.1-1.2c-0.9-0.7-1.2-1.8-0.9-3.1l1.8-10.4c0.2-1.6,1-2.7,2.2-3.3c1-0.6,2.6-0.9,4.6-0.9H421
		L420.6,180.9z"/>
	<path d="M440.9,197.2h-3.7l1.4-8.1h-11.4l-1.4,8.1h-3.7l3.3-19h3.7l-1.4,8.1h11.4l1.4-8.1h3.7L440.9,197.2z"/>
	<path d="M464.1,194.9c-0.2,0.7-0.5,1.3-1.1,1.7c-0.7,0.5-1.5,0.8-2.4,0.8s-1.6-0.2-2-0.6c-0.2-0.2-0.5-0.7-0.8-1.6l-6.4-13.3
		l-2.7,15.2h-3.6l2.9-16.2c0.3-1.8,1.5-2.7,3.6-2.7c0.9,0,1.6,0.2,2,0.6c0.2,0.2,0.5,0.7,0.9,1.6l6.4,13.3l2.7-15.2h3.6L464.1,194.9
		z"/>
	<path d="M486.7,192.9c-0.5,2.9-2.8,4.3-7,4.3H474c-2,0-3.4-0.3-4.3-0.9c-1.1-0.7-1.5-1.8-1.2-3.3l1.8-10.4c0.2-1.4,1.1-2.6,2.4-3.3
		c1.1-0.7,2.7-1,4.6-1h5.7c4.1,0,5.9,1.4,5.4,4.3L486.7,192.9z M483.1,192.2l1.6-8.9c0.2-0.9,0-1.5-0.4-1.8s-1.2-0.5-2.5-0.5h-4
		c-1.2,0-2.1,0.2-2.7,0.5s-0.9,1-1.1,1.8l-1.6,8.8c-0.2,0.7,0,1.4,0.5,1.8c0.4,0.3,1.2,0.5,2.4,0.5h4c1.2,0,2.1-0.2,2.7-0.5
		S482.9,193,483.1,192.2z"/>
	<path d="M507,197.2h-10c-2.2,0-3.8-0.3-4.9-1s-1.4-1.8-1.2-3.6l2.6-14.4h3.7l-2.4,13.8c-0.2,1,0,1.7,0.6,2c0.4,0.3,1.4,0.4,2.9,0.4
		h9.1L507,197.2z"/>
	<path d="M528.1,192.9c-0.5,2.9-2.8,4.3-7,4.3h-5.7c-2,0-3.4-0.3-4.3-0.9c-1.1-0.7-1.5-1.8-1.2-3.3l1.8-10.4
		c0.2-1.4,1.1-2.6,2.4-3.3c1.1-0.7,2.7-1,4.6-1h5.7c4.1,0,5.9,1.4,5.4,4.3L528.1,192.9z M524.6,192.2l1.6-8.9c0.2-0.9,0-1.5-0.4-1.8
		s-1.2-0.5-2.5-0.5h-4c-1.2,0-2.1,0.2-2.7,0.5c-0.6,0.3-0.9,1-1.1,1.8l-1.6,8.8c-0.2,0.7,0,1.4,0.5,1.8c0.4,0.3,1.2,0.5,2.4,0.5h4
		c1.2,0,2.1-0.2,2.7-0.5C524.1,193.6,524.4,193,524.6,192.2z"/>
	<path d="M550.8,192.6c-0.2,1.5-0.9,2.6-2,3.3c-1.2,0.8-2.7,1.2-4.4,1.2h-6.5c-2.1,0-3.6-0.3-4.5-1.1c-0.7-0.5-1-1.1-1.2-1.7
		c-0.1-0.4,0-1.1,0.2-2.1l1.7-9.6c0.2-0.9,0.4-1.6,0.7-2c0.4-0.6,1-1.1,1.9-1.6c1.1-0.6,2.7-0.9,4.5-0.9H552l-0.5,2.7h-10
		c-1.2,0-2.1,0.2-2.6,0.4c-0.6,0.3-1,0.9-1.2,1.7l-1.6,9c-0.2,0.8,0,1.5,0.6,1.8c0.4,0.2,1.2,0.4,2.2,0.4h4.9c1.9,0,3-0.7,3.2-2.2
		l1-5.6h3.7L550.8,192.6z"/>
	<path d="M576.2,178.2l-10.7,11.3l-1.3,7.7h-3.7l1.3-7.7l-6.7-11.3h4.3l4.7,8.2l7.8-8.2H576.2L576.2,178.2z"/>
	<path d="M589.8,197.2H586l3.3-19h3.7L589.8,197.2z"/>
	<path d="M612.9,194.9c-0.2,0.7-0.5,1.3-1.1,1.7c-0.7,0.5-1.5,0.8-2.4,0.8s-1.6-0.2-2-0.6c-0.2-0.2-0.5-0.7-0.8-1.6l-6.4-13.3
		l-2.7,15.2H594l2.9-16.2c0.3-1.8,1.5-2.7,3.6-2.7c0.9,0,1.6,0.2,2,0.6c0.2,0.2,0.5,0.7,0.9,1.6l6.4,13.3l2.7-15.2h3.6L612.9,194.9z
		"/>
	<path d="M634.3,180.9h-6.5l-2.9,16.2h-3.7l2.9-16.2h-6.4l0.5-2.7h16.6L634.3,180.9z"/>
	<path d="M652.6,192.9c-0.5,2.9-2.8,4.3-7,4.3h-5.7c-2,0-3.4-0.3-4.3-0.9c-1.1-0.7-1.5-1.8-1.2-3.3l1.8-10.4
		c0.2-1.4,1.1-2.6,2.4-3.3c1.1-0.7,2.7-1,4.6-1h5.7c4.1,0,5.9,1.4,5.4,4.3L652.6,192.9z M649,192.2l1.6-8.9c0.2-0.9,0-1.5-0.4-1.8
		s-1.2-0.5-2.5-0.5h-4c-1.2,0-2.1,0.2-2.7,0.5c-0.6,0.3-0.9,1-1.1,1.8l-1.6,8.8c-0.2,0.7,0,1.4,0.5,1.8c0.4,0.3,1.2,0.5,2.4,0.5h4
		c1.2,0,2.1-0.2,2.7-0.5C648.5,193.6,648.9,193,649,192.2z"/>
	<path d="M688.1,197.2H684l-1.4-4.6h-10.2l-3.1,4.6h-4.1l11.4-17.2c0.7-1.2,1.9-1.7,3.3-1.7s2.3,0.6,2.7,1.7L688.1,197.2z
		 M681.9,190l-2.7-8.5L674,190H681.9z"/>
	<path d="M708.5,197.2h-4.7l-8-7.3c-0.2-0.2-0.3-0.7-0.2-1.2c0.2-1.1,1.1-1.6,2.7-1.6h5.6c1.8,0,2.9-0.7,3.1-1.9l0.4-2.2
		c0.2-1.3-0.7-2-2.7-2h-7.8l-2.8,16.2h-3.7l3.3-18.9h12.7c3.8,0,5.6,1.3,5.1,4.1l-0.6,3.3c-0.2,1.2-0.9,2.2-2,2.8
		c-1.2,0.7-2.5,1.1-4.1,1.1h-4.5L708.5,197.2z"/>
	<path d="M729.8,180.9h-6.5l-2.9,16.2h-3.7l2.9-16.2h-6.4l0.5-2.7h16.6L729.8,180.9z"/>
</g>
<path class="st0" d="M97.8,53.4"/>
<rect x="38.9" y="113" class="st0" width="58.1" height="18.8"/>
<polygon class="st0" points="97.2,54.6 97.2,54.9 97.1,68.7 97,81.4 89.5,88.9 88.2,90.2 86.4,92 84.5,93.9 52.1,126.3 38.9,113 "/>
<rect x="78.5" y="113" class="st0" width="18.8" height="38.5"/>
<g>
	<path class="st0" d="M132.6,54.3H122h-14V59v14.4h20.8c0,0,0,0,0.1,0c5,0.3,9.4,2.5,12.7,5.8c0.2,0.2,0.4,0.4,0.6,0.6
		c0.4,0.4,0.8,0.9,1.1,1.4c0.4,0.5,0.7,1,1,1.5s0.6,1,0.9,1.5l0,0c0.4,0.8,0.8,1.6,1,2.5c0.6,1.7,0.9,3.5,1,5.4v2
		c-0.1,1.9-0.4,3.7-1,5.4c-0.2,0.6-0.4,1.1-0.6,1.7l0,0c-0.2,0.5-0.5,1.1-0.8,1.6s-0.6,1-0.9,1.5c-0.7,1-1.4,1.9-2.2,2.7
		c-1,1-2.2,2-3.4,2.8c-0.5,0.3-1,0.6-1.5,0.9s-1.1,0.5-1.6,0.8c-0.5,0.2-1.1,0.4-1.7,0.6c-0.3,0.1-0.6,0.2-0.9,0.3
		c-0.6,0.1-1.2,0.3-1.8,0.4s-1.2,0.2-1.8,0.2h-17.5l0,0H108v13.8v4.7h14h10.5c19-2.6,33.7-18.9,33.7-38.6
		C166.2,73.2,151.6,56.9,132.6,54.3z"/>
</g>
<path class="st1" d="M107.9,93.8"/>
<path class="st0" d="M86.4,92L86.4,92l1.8-1.8l1.3-1.3l0,0L86.4,92z"/>
<path class="st2" d="M91.2,103.8L112,83.9h13.3c0,0,9.7,0.8,9.7,10s-9.1,9.9-9.1,9.9H91.2z"/>
</svg>
